<?xml version="1.0" encoding="UTF-8"?>
<svg id="Layer_2" data-name="Layer 2" xmlns="http://www.w3.org/2000/svg" viewBox="0 0 55.9 42.08">
  <defs>
    <style>
      .cls-1 {
        fill: #0164b0;
      }

      .cls-2 {
        fill: #75c44c;
      }
    </style>
  </defs>
  <g id="Layer_1-2" data-name="Layer 1">
    <path class="cls-1" d="M27.95,6.85c-8.12,0-14.72,7.9-14.72,17.62s6.61,17.61,14.72,17.61,14.73-7.9,14.73-17.61S36.07,6.85,27.95,6.85Zm6.54,19.29c0,.56-.46,1.01-1.02,1.01h-2.54v2.83c0,.56-.45,1.02-1.01,1.02h-3.93c-.56,0-1.02-.46-1.02-1.02v-2.83h-2.54c-.56,0-1.02-.46-1.02-1.01v-3.35c0-.56,.46-1.01,1.02-1.01h2.54v-2.83c0-.56,.46-1.02,1.02-1.02h3.93c.56,0,1.01,.46,1.01,1.02v2.83h2.54c.56,0,1.02,.46,1.02,1.01v3.35Z"/>
    <g>
      <path class="cls-2" d="M55.9,15.76c0,2.86-.63,5.81-1.81,8.55-2.35,5.42-6.8,9.6-11.77,11.24,1.82-3.29,2.8-7.13,2.8-11.08,0-5.27-1.72-10.29-4.85-14.12-2.48-3.04-5.67-5.09-9.14-5.93C34.33,1.59,38.23,0,42.09,0c1.82,0,3.58,.35,5.21,1.06,5.31,2.3,8.61,7.93,8.61,14.69Z"/>
      <path class="cls-2" d="M24.78,4.42c-3.47,.84-6.66,2.9-9.15,5.94-3.13,3.83-4.85,8.84-4.85,14.11,0,3.96,.98,7.79,2.8,11.08-4.97-1.63-9.42-5.81-11.77-11.24C-2.27,14.89,.78,4.46,8.61,1.06c1.63-.7,3.38-1.06,5.21-1.06,3.85,0,7.75,1.59,10.96,4.42Z"/>
    </g>
  </g>
</svg>